<?xml version="1.0" standalone="no"?>
<!DOCTYPE svg PUBLIC "-//W3C//DTD SVG 20010904//EN"
 "http://www.w3.org/TR/2001/REC-SVG-20010904/DTD/svg10.dtd">
<svg version="1.0" xmlns="http://www.w3.org/2000/svg"
 width="500.000000pt" height="500.000000pt" viewBox="0 0 500.000000 500.000000"
 preserveAspectRatio="xMidYMid meet">
<metadata>
Created by potrace 1.14, written by Peter Selinger 2001-2017
</metadata>
<g transform="translate(0.000000,500.000000) scale(0.100000,-0.100000)"
fill="#000000" stroke="none">
<path d="M191 4178 c-65 -25 -134 -90 -164 -156 l-22 -47 -2 -1470 c-2 -1437
-2 -1471 18 -1521 27 -70 79 -128 147 -161 l57 -28 2255 -3 c2510 -2 2313 -8
2408 67 34 27 59 59 78 98 l29 58 2 1470 c2 1469 2 1470 -19 1524 -27 72 -97
142 -169 169 l-54 21 -2255 0 -2255 0 -54 -21z m3578 -671 c36 -12 69 -29 74
-38 7 -12 -2 -41 -36 -112 -25 -54 -48 -97 -50 -97 -3 0 -24 9 -48 20 -54 24
-138 26 -185 4 -66 -32 -95 -83 -110 -201 l-7 -53 158 0 158 0 -7 -72 c-4 -40
-9 -90 -13 -110 l-6 -38 -152 0 -153 0 -6 -37 c-3 -21 -31 -238 -61 -483 -57
-465 -70 -534 -112 -613 -35 -64 -120 -142 -190 -175 -54 -25 -67 -27 -198
-27 -131 0 -144 2 -197 27 -32 15 -58 31 -58 36 0 11 89 202 94 202 2 0 23 -9
47 -20 51 -23 126 -26 172 -6 42 17 84 66 97 114 6 20 35 235 65 477 30 242
57 455 60 473 l6 32 -96 0 -96 0 6 48 c3 26 9 74 13 107 l7 60 96 3 96 3 7 70
c21 212 124 355 296 410 83 27 246 25 329 -4z m-1324 -833 c187 -415 342 -759
343 -764 2 -7 -295 -10 -822 -10 -558 0 -826 3 -826 10 0 9 645 1453 672 1503
8 15 26 17 151 17 l142 0 340 -756z"/>
<path d="M1746 2639 c-114 -264 -206 -483 -203 -485 2 -2 191 -3 420 -2 l416
3 -207 482 c-114 265 -209 483 -212 483 -4 0 -99 -216 -214 -481z"/>
</g>
</svg>
